<svg width="33" height="35" xmlns="http://www.w3.org/2000/svg" >
    <defs>
     <style>.cls-1{fill:#222b45;}.cls-2{fill:#808082;}</style>
    </defs>
    <title>Logo</title>
    <g>
     <path d="m22.69,20.75l5.08,1.61a11.35,11.35 0 0 1 -3.89,6.31a11,11 0 0 1 -6.89,2.08a11.14,11.14 0 0 1 -8.54,-3.55q-3.33,-3.53 -3.33,-9.66q0,-6.48 3.34,-10.07a11.48,11.48 0 0 1 8.8,-3.58a10.82,10.82 0 0 1 7.78,2.86a10.28,10.28 0 0 1 2.66,4.78l-5.19,1.22a5.37,5.37 0 0 0 -5.47,-4.35a5.92,5.92 0 0 0 -4.69,2.07q-1.78,2.07 -1.79,6.71q0,4.92 1.77,7a5.72,5.72 0 0 0 4.6,2.09a5.28,5.28 0 0 0 3.6,-1.32a7.78,7.78 0 0 0 2.16,-4.2z" class="cls-1"/>
     <polygon points="7.579998970031738,34.619998931884766 0,34.619998931884766 0,0 7.579998970031738,0 7.579998970031738,1.9799995422363281 1.9799995422363281,1.9799995422363281 1.9799995422363281,32.63999938964844 7.579998970031738,32.63999938964844 7.579998970031738,34.619998931884766 " class="cls-2"/>
     <polygon points="32.67000102996826,34.619998931884766 25.08000087738037,34.619998931884766 25.08000087738037,32.63999938964844 30.690001487731934,32.63999938964844 30.690001487731934,1.9799995422363281 25.08000087738037,1.9799995422363281 25.08000087738037,0 32.67000102996826,0 32.67000102996826,34.619998931884766 " class="cls-2"/>
     <polyline stroke-linecap="round" points="31.16052532196045,6.592105865478516 31.16052532196045,6.592105865478516 " fill="none"/>
    </g>
   </svg>