<svg style="height: 2.75rem"
	xmlns="http://www.w3.org/2000/svg"
	xmlns:xlink="http://www.w3.org/1999/xlink" viewBox="0 0 222 49">
	<defs>
		<style>.cls-hj-1{fill:#b7b7b7;}.cls-hj-2{fill:#bebebe;}.cls-hj-3{fill:#c4c4c4;}</style>
		<linearGradient id="gradient" x1="33.44" y1="41.99" x2="199.07" y2="41.53" gradientUnits="userSpaceOnUse">
			<stop offset="0.35" stop-color="#808082"/>
			<stop offset="0.37" stop-color="#78797d"/>
			<stop offset="0.45" stop-color="#5f626c"/>
			<stop offset="0.52" stop-color="#505562"/>
			<stop offset="0.59" stop-color="#4b505f"/>
			<stop offset="0.69" stop-color="#30374e"/>
			<stop offset="0.73" stop-color="#222b45"/>
		</linearGradient>
		<linearGradient id="gradient-dark" x1="32.44" y1="42.99" x2="198.07" y2="42.53" gradientUnits="userSpaceOnUse">
			<stop offset="0" stop-color="#bcbcbc"/>
			<stop offset="0.37" stop-color="#989899"/>
			<stop offset="0.41" stop-color="#b3b3b4"/>
			<stop offset="0.47" stop-color="#d4d4d5"/>
			<stop offset="0.53" stop-color="#ececec"/>
			<stop offset="0.58" stop-color="#fafafa"/>
			<stop offset="0.62" stop-color="#fff"/>
			<stop offset="0.79" stop-color="#fff"/>
		</linearGradient>
		<linearGradient id="gradient-2" x1="32.45" y1="45.83" x2="198.08" y2="45.37" xlink:href="#gradient"/>
		<linearGradient id="gradient-3" x1="32.45" y1="45.74" x2="198.08" y2="45.27" xlink:href="#gradient"/>
		<linearGradient id="gradient-4" x1="32.45" y1="45.95" x2="198.08" y2="45.48" xlink:href="#gradient"/>
		<linearGradient id="gradient-5" x1="32.45" y1="45.84" x2="198.08" y2="45.38" xlink:href="#gradient"/>
		<linearGradient id="gradient-6" x1="32.45" y1="46.04" x2="198.08" y2="45.58" xlink:href="#gradient"/>
		<linearGradient id="gradient-7" x1="32.45" y1="43.84" x2="198.08" y2="43.38" xlink:href="#gradient"/>
		<linearGradient id="gradient-8" x1="32.45" y1="46.05" x2="198.08" y2="45.59" xlink:href="#gradient"/>
		<linearGradient id="gradient-9" x1="32.45" y1="46.1" x2="198.08" y2="45.64" xlink:href="#gradient"/>
		<linearGradient id="gradient-10" x1="32.45" y1="43.34" x2="198.08" y2="42.87" xlink:href="#gradient"/>
		<linearGradient id="gradient-11" x1="32.45" y1="46.19" x2="198.08" y2="45.73" xlink:href="#gradient"/>
		<linearGradient id="gradient-dark-2" x1="32.45" y1="45.83" x2="198.08" y2="45.37" xlink:href="#gradient-dark"/>
		<linearGradient id="gradient-dark-3" x1="32.45" y1="45.74" x2="198.08" y2="45.27" xlink:href="#gradient-dark"/>
		<linearGradient id="gradient-dark-4" x1="32.45" y1="45.95" x2="198.08" y2="45.48" xlink:href="#gradient-dark"/>
		<linearGradient id="gradient-dark-5" x1="32.45" y1="45.84" x2="198.08" y2="45.38" xlink:href="#gradient-dark"/>
		<linearGradient id="gradient-dark-6" x1="32.45" y1="46.04" x2="198.08" y2="45.58" xlink:href="#gradient-dark"/>
		<linearGradient id="gradient-dark-7" x1="32.45" y1="43.84" x2="198.08" y2="43.38" xlink:href="#gradient-dark"/>
		<linearGradient id="gradient-dark-8" x1="32.45" y1="46.05" x2="198.08" y2="45.59" xlink:href="#gradient-dark"/>
		<linearGradient id="gradient-dark-9" x1="32.45" y1="46.1" x2="198.08" y2="45.64" xlink:href="#gradient-dark"/>
		<linearGradient id="gradient-dark-10" x1="32.45" y1="43.34" x2="198.08" y2="42.87" xlink:href="#gradient-dark"/>
		<linearGradient id="gradient-dark-11" x1="32.45" y1="46.19" x2="198.08" y2="45.73" xlink:href="#gradient-dark"/>
	</defs>
	<title>Logo</title>
  <path class="cls-hj-1" d="M 1.044 31.938 C 0.63 30.407 0.365 28.84 0.254 27.258 C 0.189 26.459 0.189 25.657 0.254 24.858 C 0.324 24.068 0.424 23.288 0.554 22.498 C 0.684 21.709 0.858 20.928 1.074 20.158 C 1.292 19.385 1.559 18.627 1.874 17.888 C 2.444 16.405 3.112 14.962 3.874 13.568 C 4.074 13.218 4.294 12.868 4.514 12.568 C 4.734 12.268 4.954 11.908 5.184 11.568 C 5.644 10.901 6.124 10.261 6.624 9.648 C 7.635 8.398 8.742 7.228 9.934 6.148 C 10.544 5.618 11.164 5.098 11.804 4.608 C 12.459 4.104 13.148 3.643 13.864 3.228 C 15.311 2.427 16.853 1.809 18.454 1.388 C 20.051 0.988 21.675 0.701 23.314 0.528 C 24.913 0.329 26.522 0.216 28.134 0.188 C 28.954 0.188 29.764 0.188 30.584 0.268 L 31.204 0.268 L 31.804 0.328 L 33.004 0.468 C 34.619 0.683 36.219 1 37.794 1.418 C 40.887 2.341 43.881 3.567 46.734 5.078 L 50.934 7.178 C 52.354 7.888 53.744 8.628 55.134 9.368 L 59.254 11.608 C 60.587 12.321 61.957 12.988 63.364 13.608 C 64.054 13.908 64.754 14.188 65.444 14.458 L 65.974 14.648 L 66.474 14.818 C 67.322 15.107 68.221 15.216 69.114 15.138 C 69.414 15.138 69.704 15.068 70.004 15.008 C 70.318 14.942 70.628 14.859 70.934 14.758 C 72.323 14.332 73.679 13.808 74.994 13.188 C 75.684 12.878 76.374 12.548 77.084 12.188 L 77.614 11.938 L 78.094 11.698 L 79.094 11.208 C 80.404 10.528 81.694 9.728 83.094 8.938 L 83.614 8.628 L 84.164 8.328 L 85.234 7.748 L 87.254 6.668 L 88.254 6.148 L 88.794 5.858 L 89.354 5.578 C 90.104 5.208 90.874 4.858 91.644 4.578 C 92.414 4.298 93.204 3.988 93.984 3.738 L 95.174 3.378 L 95.764 3.218 L 96.394 3.058 C 98.126 2.632 99.919 2.51 101.694 2.698 C 102.596 2.803 103.484 3.004 104.344 3.298 C 105.184 3.59 105.994 3.962 106.764 4.408 C 108.239 5.286 109.569 6.389 110.704 7.678 C 111.767 8.931 112.727 10.269 113.574 11.678 C 114.426 13.042 115.165 14.473 115.784 15.958 C 116.094 16.698 116.364 17.448 116.614 18.208 C 116.864 18.968 117.084 19.718 117.274 20.488 L 116.854 20.638 C 115.531 17.857 113.868 15.25 111.904 12.878 C 110.962 11.683 109.929 10.563 108.814 9.528 C 107.749 8.583 106.549 7.801 105.254 7.208 C 104.043 6.639 102.73 6.323 101.394 6.278 C 100.036 6.26 98.684 6.466 97.394 6.888 L 96.894 7.048 L 96.374 7.228 C 96.024 7.348 95.674 7.478 95.374 7.618 C 94.684 7.878 94.014 8.168 93.374 8.478 C 92.734 8.788 92.054 9.118 91.374 9.478 L 90.904 9.748 L 90.424 10.038 L 89.424 10.648 L 87.424 11.778 L 86.424 12.338 L 85.954 12.628 L 85.484 12.928 C 84.154 13.748 82.784 14.588 81.314 15.368 C 80.954 15.568 80.584 15.758 80.194 15.938 L 79.624 16.198 L 79.084 16.438 C 78.374 16.768 77.644 17.088 76.904 17.438 C 75.367 18.104 73.783 18.652 72.164 19.078 C 71.774 19.178 71.274 19.288 70.804 19.358 C 70.331 19.437 69.853 19.48 69.374 19.488 C 68.401 19.514 67.43 19.413 66.484 19.188 C 66.015 19.075 65.554 18.932 65.104 18.758 L 64.504 18.508 L 63.944 18.268 C 63.194 17.948 62.464 17.598 61.734 17.268 C 60.254 16.528 58.814 15.708 57.434 14.918 L 53.374 12.528 C 52.034 11.748 50.684 10.978 49.374 10.238 L 45.254 8.028 C 42.628 6.524 39.862 5.282 36.994 4.318 C 35.558 3.888 34.094 3.554 32.614 3.318 C 32.244 3.248 31.874 3.188 31.494 3.138 L 30.934 3.058 L 30.374 2.988 C 29.644 2.908 28.894 2.858 28.144 2.828 C 26.629 2.79 25.113 2.837 23.604 2.968 C 22.098 3.07 20.601 3.277 19.124 3.588 C 17.681 3.895 16.284 4.382 14.964 5.038 C 13.644 5.738 12.401 6.572 11.254 7.528 C 10.083 8.495 8.987 9.548 7.974 10.678 C 7.474 11.248 6.974 11.838 6.524 12.448 C 6.284 12.748 6.054 13.058 5.834 13.368 C 5.614 13.678 5.404 13.988 5.194 14.308 C 4.393 15.615 3.681 16.975 3.064 18.378 C 2.731 19.062 2.444 19.767 2.204 20.488 C 1.964 21.208 1.774 21.948 1.604 22.698 C 1.434 23.448 1.304 24.218 1.184 24.978 C 1.075 25.733 1.021 26.495 1.024 27.258 C 1.047 28.804 1.214 30.344 1.524 31.858 Z"/>
  <path class="cls-hj-1" d="M 175.834 16.588 L 119.254 17.528 C 118.538 17.528 118.09 16.753 118.448 16.133 C 118.614 15.845 118.921 15.668 119.254 15.668 Z"/>
  <path class="cls-hj-1" d="M 199.104 7.138 C 199.712 6.675 200.555 6.675 201.164 7.138 C 204.564 9.768 218.734 20.638 219.304 21.208 C 226.914 26.788 200.914 27.578 200.914 27.578 C 200.914 27.578 214.314 24.128 211.684 22.008 C 209.054 19.888 201.964 14.578 200.394 13.508 C 198.024 11.658 189.884 18.028 178.074 16.168 C 178.074 16.178 187.964 15.428 199.104 7.138 Z"/>
  <ellipse class="cls-hj-1" cx="203.864" cy="5.358" rx="1.64" ry="1.65"/>
  <ellipse class="cls-hj-1" cx="207.074" cy="7.938" rx="1.64" ry="1.65"/>
  <ellipse class="cls-hj-1" cx="210.344" cy="10.778" rx="1.64" ry="1.65"/>
  <ellipse class="cls-hj-1" cx="213.554" cy="13.358" rx="1.64" ry="1.65"/>
  <ellipse class="cls-hj-1" cx="216.694" cy="15.938" rx="1.64" ry="1.65"/>
  <ellipse class="cls-hj-1" cx="219.764" cy="18.718" rx="1.64" ry="1.65"/>
  <path class="cls-hj-1" d="M 7.374 40.658 L 7.374 20.468 L 11.454 20.468 L 11.454 28.468 L 19.454 28.468 L 19.454 20.468 L 23.534 20.468 L 23.534 40.658 L 19.434 40.658 L 19.434 31.828 L 11.434 31.828 L 11.434 40.658 Z"/>
  <path class="cls-hj-1" d="M 27.114 33.138 C 27.122 31.836 27.448 30.556 28.064 29.408 C 28.662 28.241 29.6 27.282 30.754 26.658 C 31.943 25.996 33.283 25.652 34.644 25.658 C 36.677 25.588 38.648 26.367 40.084 27.808 C 41.534 29.264 42.319 31.254 42.254 33.308 C 42.318 35.356 41.546 37.342 40.114 38.808 C 38.698 40.253 36.745 41.043 34.724 40.988 C 33.39 40.991 32.074 40.68 30.884 40.078 C 29.702 39.507 28.732 38.576 28.114 37.418 C 27.429 36.097 27.085 34.626 27.114 33.138 Z M 31.114 33.348 C 31.022 34.544 31.378 35.731 32.114 36.678 C 33.453 38.225 35.854 38.225 37.194 36.678 C 37.932 35.721 38.288 34.523 38.194 33.318 C 38.282 32.132 37.926 30.955 37.194 30.018 C 35.854 28.471 33.453 28.471 32.114 30.018 C 31.364 30.96 30.993 32.147 31.074 33.348 Z"/>
  <path class="cls-hj-1" d="M 45.254 26.038 L 48.824 26.038 L 48.824 28.038 C 49.892 26.593 51.577 25.734 53.374 25.718 C 54.224 25.695 55.065 25.895 55.814 26.298 C 56.53 26.707 57.116 27.31 57.504 28.038 C 58.072 27.324 58.78 26.732 59.584 26.298 C 60.321 25.912 61.141 25.713 61.974 25.718 C 62.922 25.684 63.863 25.909 64.694 26.368 C 65.444 26.809 66.031 27.483 66.364 28.288 C 66.675 29.256 66.81 30.272 66.764 31.288 L 66.764 40.638 L 62.894 40.638 L 62.894 32.298 C 62.98 31.343 62.843 30.381 62.494 29.488 C 62.131 28.938 61.501 28.624 60.844 28.668 C 60.295 28.668 59.76 28.839 59.314 29.158 C 58.828 29.521 58.476 30.034 58.314 30.618 C 58.057 31.596 57.949 32.608 57.994 33.618 L 57.994 40.618 L 54.094 40.618 L 54.094 32.618 C 54.14 31.693 54.07 30.766 53.884 29.858 C 53.78 29.488 53.554 29.164 53.244 28.938 C 52.894 28.72 52.485 28.615 52.074 28.638 C 51.497 28.631 50.933 28.798 50.454 29.118 C 49.977 29.459 49.625 29.948 49.454 30.508 C 49.203 31.487 49.098 32.498 49.144 33.508 L 49.144 40.608 L 45.254 40.608 Z"/>
  <path class="cls-hj-1" d="M 79.394 36.008 L 83.254 36.648 C 82.839 37.95 82.015 39.083 80.904 39.878 C 79.716 40.651 78.319 41.038 76.904 40.988 C 74.728 41.162 72.608 40.24 71.254 38.528 C 70.253 37.057 69.745 35.306 69.804 33.528 C 69.685 31.458 70.365 29.422 71.704 27.838 C 72.928 26.48 74.686 25.727 76.514 25.778 C 78.466 25.687 80.356 26.476 81.664 27.928 C 82.924 29.368 83.524 31.568 83.464 34.528 L 73.764 34.528 C 73.731 35.508 74.066 36.464 74.704 37.208 C 75.264 37.853 76.08 38.218 76.934 38.208 C 77.483 38.224 78.021 38.047 78.454 37.708 C 78.947 37.261 79.277 36.663 79.394 36.008 Z M 79.614 32.098 C 79.655 31.163 79.344 30.246 78.744 29.528 C 77.622 28.351 75.736 28.374 74.644 29.578 C 74.062 30.28 73.772 31.179 73.834 32.088 Z"/>
  <path class="cls-hj-1" d="M 100.254 40.658 L 96.354 40.658 L 96.354 33.198 C 96.41 32.168 96.326 31.135 96.104 30.128 C 95.959 29.692 95.679 29.313 95.304 29.048 C 94.902 28.789 94.432 28.656 93.954 28.668 C 93.311 28.658 92.681 28.85 92.154 29.218 C 91.632 29.566 91.244 30.081 91.054 30.678 C 90.811 31.781 90.714 32.91 90.764 34.038 L 90.764 40.658 L 86.894 40.658 L 86.894 26.038 L 90.484 26.038 L 90.484 28.188 C 91.587 26.622 93.388 25.696 95.304 25.708 C 96.107 25.695 96.905 25.852 97.644 26.168 C 98.271 26.419 98.825 26.825 99.254 27.348 C 99.618 27.828 99.874 28.38 100.004 28.968 C 100.182 29.809 100.266 30.668 100.254 31.528 Z"/>
  <path class="cls-hj-1" d="M 107.344 30.528 L 103.834 29.888 C 104.118 28.645 104.825 27.539 105.834 26.758 C 107.133 25.999 108.632 25.65 110.134 25.758 C 111.446 25.685 112.758 25.893 113.984 26.368 C 114.728 26.685 115.351 27.232 115.764 27.928 C 116.195 29.028 116.373 30.21 116.284 31.388 L 116.284 35.898 C 116.257 36.852 116.32 37.806 116.474 38.748 C 116.615 39.442 116.847 40.114 117.164 40.748 L 113.334 40.748 C 113.234 40.488 113.114 40.108 112.964 39.608 C 112.904 39.378 112.854 39.228 112.824 39.148 C 112.21 39.738 111.491 40.206 110.704 40.528 C 109.941 40.851 109.121 41.014 108.294 41.008 C 106.993 41.081 105.716 40.643 104.734 39.788 C 103.312 38.387 103.024 36.2 104.034 34.478 C 104.422 33.828 104.997 33.309 105.684 32.988 C 106.671 32.567 107.705 32.265 108.764 32.088 C 110.043 31.885 111.301 31.568 112.524 31.138 L 112.524 30.728 C 112.583 30.143 112.382 29.562 111.974 29.138 C 111.35 28.76 110.62 28.595 109.894 28.668 C 109.329 28.635 108.767 28.774 108.284 29.068 C 107.825 29.444 107.496 29.955 107.344 30.528 Z M 112.524 33.668 C 112.034 33.828 111.244 34.028 110.174 34.258 C 109.44 34.37 108.728 34.596 108.064 34.928 C 107.592 35.224 107.305 35.741 107.304 36.298 C 107.298 36.83 107.52 37.34 107.914 37.698 C 108.324 38.098 108.881 38.311 109.454 38.288 C 110.175 38.278 110.875 38.04 111.454 37.608 C 111.893 37.294 112.216 36.845 112.374 36.328 C 112.5 35.707 112.551 35.072 112.524 34.438 Z"/>
  <path class="cls-hj-2" d="M 133.094 34.018 C 133.094 38.708 131.494 40.958 126.504 40.958 C 125.554 40.978 124.605 40.894 123.674 40.708 L 123.674 36.588 C 124.241 36.651 124.812 36.685 125.384 36.688 C 127.084 36.688 127.384 35.688 127.384 34.328 L 127.384 21.238 L 133.054 21.238 Z"/>
  <path class="cls-hj-2" d="M 141.094 34.358 C 141.094 35.848 141.664 37.358 143.284 37.358 C 144.195 37.506 145.063 36.912 145.254 36.008 L 150.654 36.008 C 150.114 38.008 148.444 41.008 143.214 41.008 C 137.624 41.008 135.574 37.248 135.574 33.388 C 135.574 28.928 137.934 25.508 143.314 25.508 C 149.044 25.508 150.784 29.388 150.784 33.078 C 150.805 33.501 150.805 33.925 150.784 34.348 Z M 145.254 31.528 C 145.254 30.148 144.834 28.978 143.254 28.978 C 141.674 28.978 141.254 30.058 141.124 31.528 Z"/>
  <path class="cls-hj-3" d="M 157.424 36.098 C 157.699 37.065 158.649 37.677 159.644 37.528 C 160.734 37.528 161.204 37.198 161.204 36.528 C 161.204 35.858 160.554 35.528 158.604 35.098 C 153.514 33.958 152.774 32.278 152.774 30.188 C 152.774 28.098 154.254 25.528 159.334 25.528 C 164.154 25.528 165.894 27.998 166.034 30.078 L 161.104 30.078 C 160.994 29.558 160.674 28.808 159.184 28.808 C 158.184 28.808 157.844 29.218 157.844 29.718 C 157.844 30.218 158.324 30.548 160.734 31.088 C 165.444 32.148 166.454 33.788 166.454 36.088 C 166.454 38.718 164.534 41.008 159.454 41.008 C 154.634 41.008 152.614 38.698 152.314 36.088 Z"/>
  <path class="cls-hj-3" d="M 182.984 35.938 C 182.984 37.248 182.984 39.248 182.984 40.658 L 177.584 40.658 C 177.524 40.308 177.494 39.488 177.474 39.098 C 176.568 40.443 174.998 41.184 173.384 41.028 C 170.214 41.028 168.534 39.098 168.534 35.598 L 168.534 25.878 L 174.014 25.878 L 174.014 34.678 C 174.014 36.028 174.394 36.968 175.644 36.968 C 176.894 36.968 177.454 36.238 177.454 34.048 L 177.454 25.878 L 182.954 25.878 Z M 182.474 19.938 L 177.524 24.168 L 173.254 24.168 L 176.614 19.938 Z"/>
  <path class="cls-hj-3" d="M 190.254 36.098 C 190.528 37.052 191.46 37.661 192.444 37.528 C 193.524 37.528 193.994 37.198 193.994 36.528 C 193.994 35.858 193.344 35.528 191.404 35.098 C 186.304 33.958 185.574 32.278 185.574 30.188 C 185.574 28.098 187.074 25.498 192.134 25.498 C 196.954 25.498 198.684 27.968 198.834 30.048 L 193.904 30.048 C 193.794 29.528 193.464 28.778 191.984 28.778 C 190.984 28.778 190.644 29.188 190.644 29.688 C 190.644 30.188 191.124 30.518 193.524 31.058 C 198.234 32.118 199.254 33.758 199.254 36.058 C 199.254 38.688 197.334 40.978 192.254 40.978 C 187.424 40.978 185.404 38.668 185.104 36.058 Z"/>

</svg>