<svg style="height: 2.75rem" xmlns="http://www.w3.org/2000/svg" viewBox="0 0 222 49">
	<defs>
		<style>.cls-1{fill:#222b45;}.cls-2{fill:#1c2339;}</style>
	</defs>
	<title>Logo</title>
	<path d="m48.39865,20.21l0,7.64a6,6 0 0 1 7.09,-1.74a4.08,4.08 0 0 1 1.67,1.3a4.69,4.69 0 0 1 0.76,1.76a15.37,15.37 0 0 1 0.21,3l0,8.86l-4,0l0,-8a11.87,11.87 0 0 0 -0.22,-3a2,2 0 0 0 -0.81,-1a2.56,2.56 0 0 0 -1.43,-0.37a3.32,3.32 0 0 0 -1.78,0.48a2.75,2.75 0 0 0 -1.14,1.45a8.74,8.74 0 0 0 -0.36,2.87l0,7.57l-4,0l0,-20.82l4.01,0z" class="cls-1"/>
  <path d="m60.24865,32.91a8.17,8.17 0 0 1 1,-3.84a6.8,6.8 0 0 1 2.8,-2.84a8.22,8.22 0 0 1 4,-1a7.54,7.54 0 0 1 5.61,2.22a7.67,7.67 0 0 1 2.18,5.6a7.77,7.77 0 0 1 -2.21,5.67a7.45,7.45 0 0 1 -5.58,2.31a8.67,8.67 0 0 1 -4,-1a6.48,6.48 0 0 1 -2.86,-2.74a9.21,9.21 0 0 1 -0.94,-4.38zm4.08,0.22a5,5 0 0 0 1.06,3.43a3.41,3.41 0 0 0 2.66,1.19a3.35,3.35 0 0 0 2.61,-1.19a5,5 0 0 0 1.06,-3.46a5,5 0 0 0 -1.06,-3.41a3.35,3.35 0 0 0 -2.61,-1.19a3.41,3.41 0 0 0 -2.63,1.19a5.06,5.06 0 0 0 -1.09,3.44z" class="cls-1"/>
  <path d="m82.72865,41.03l-4,0l0,-15.09l3.7,0l0,2.14a6.34,6.34 0 0 1 1.71,-2a3.14,3.14 0 0 1 1.72,-0.48a5,5 0 0 1 2.62,0.75l-1.23,3.47a3.54,3.54 0 0 0 -1.87,-0.65a2.2,2.2 0 0 0 -1.42,0.46a3.19,3.19 0 0 0 -0.91,1.67a23.84,23.84 0 0 0 -0.33,5l0.01,4.73z" class="cls-1"/>
  <path d="m103.04865,40.66l-3.7,0l0,-2.22a5.94,5.94 0 0 1 -2.18,1.93a5.6,5.6 0 0 1 -2.53,0.63a5.75,5.75 0 0 1 -4.45,-2.09a8.54,8.54 0 0 1 -1.86,-5.88a8.42,8.42 0 0 1 1.8,-5.82a5.86,5.86 0 0 1 4.55,-2a5.65,5.65 0 0 1 4.37,2.14l0,-7.48l4,0l0,20.79zm-10.65,-7.86a6.83,6.83 0 0 0 0.65,3.49a3,3 0 0 0 2.69,1.56a2.92,2.92 0 0 0 2.34,-1.17a5.43,5.43 0 0 0 1,-3.5a5.91,5.91 0 0 0 -0.94,-3.73a3,3 0 0 0 -2.4,-1.14a3,3 0 0 0 -2.37,1.12a5.09,5.09 0 0 0 -0.97,3.37z" class="cls-1"/>
  <path d="m106.98865,41.03l0,-20.82l6.74,0a24.29,24.29 0 0 1 5,0.31a5.44,5.44 0 0 1 3,2a6.44,6.44 0 0 1 1.21,4a6.7,6.7 0 0 1 -0.7,3.22a5.64,5.64 0 0 1 -1.76,2.05a6.06,6.06 0 0 1 -2.18,1a23.73,23.73 0 0 1 -4.35,0.3l-2.74,0l0,7.94l-4.22,0zm4.2,-17.28l0,5.9l2.3,0a10.87,10.87 0 0 0 3.32,-0.32a2.84,2.84 0 0 0 1.31,-1a2.8,2.8 0 0 0 0.47,-1.62a2.69,2.69 0 0 0 -0.66,-1.87a2.92,2.92 0 0 0 -1.69,-0.92a19.09,19.09 0 0 0 -3,-0.15l-2.05,-0.02z" class="cls-1"/>
  <path d="m128.15865,41.03l-4,0l0,-15.09l3.7,0l0,2.14a6.34,6.34 0 0 1 1.71,-2a3.14,3.14 0 0 1 1.72,-0.48a5,5 0 0 1 2.62,0.75l-1.23,3.47a3.54,3.54 0 0 0 -1.87,-0.65a2.2,2.2 0 0 0 -1.42,0.46a3.12,3.12 0 0 0 -0.91,1.67a22.94,22.94 0 0 0 -0.34,5l0.02,4.73z" class="cls-1"/>
  <path d="m133.72865,32.91a8.18,8.18 0 0 1 1,-3.84a6.78,6.78 0 0 1 2.77,-2.84a8.29,8.29 0 0 1 4,-1a7.5,7.5 0 0 1 5.6,2.22a7.64,7.64 0 0 1 2.19,5.6a7.77,7.77 0 0 1 -2.24,5.7a7.45,7.45 0 0 1 -5.53,2.28a8.67,8.67 0 0 1 -3.95,-0.94a6.43,6.43 0 0 1 -2.86,-2.74a9.21,9.21 0 0 1 -0.98,-4.44zm4.09,0.22a5,5 0 0 0 1.06,3.43a3.48,3.48 0 0 0 5.24,0a5,5 0 0 0 1.06,-3.46a5,5 0 0 0 -1.06,-3.41a3.48,3.48 0 0 0 -5.24,0a5,5 0 0 0 -1.06,3.44z" class="cls-1"/>
  <path d="m157.19865,25.03l0,14.11c0,4.57 -0.87,7 -5.9,7c-0.47,0 -1.14,0 -1.6,-0.07l0,-4.12l0.35,0c1.14,0 1.51,-0.37 1.51,-1.7l0,-15.22l5.64,0zm-5.65,-1.9l0,-4l5.66,0l0,4l-5.66,0z" class="cls-2"/>
  <path d="m164.43865,33.73c0,1.53 0.59,3.07 2.25,3.07a1.8,1.8 0 0 0 2,-1.37l5.56,0c-0.56,2 -2.28,5.16 -7.67,5.16c-5.75,0 -7.87,-3.87 -7.87,-7.85c0,-4.59 2.43,-8.11 8,-8.11c5.9,0 7.7,4 7.7,7.79a13.05,13.05 0 0 1 0,1.31l-9.97,0zm4.29,-3c0,-1.43 -0.43,-2.63 -2.05,-2.63s-2.09,1.12 -2.19,2.63l4.24,0z" class="cls-2"/>
  <path d="m190.62865,34.95c-0.45,2.74 -2.23,5.64 -7.48,5.64s-7.71,-3.51 -7.71,-7.84c0,-4.58 2.83,-8.12 7.91,-8.12c5.74,0 7.18,3.87 7.28,5.71l-5.39,0c-0.15,-1.07 -0.62,-1.92 -1.86,-1.92c-1.43,0 -2.15,1.34 -2.15,4.13c0,3.14 0.79,4.29 2.12,4.29c1.15,0 1.65,-0.87 1.9,-1.89l5.38,0z" class="cls-2"/>
  <path d="m190.84865,25.03l2.2,0l0,-4l5.61,0l0,4l2.67,0l0,3.82l-2.68,0l0,6.53c0,0.94 0.29,1.3 1.48,1.3a7.69,7.69 0 0 0 0.79,0l0,3.5a12.51,12.51 0 0 1 -3.3,0.35c-3.6,0 -4.61,-1.76 -4.61,-4.64l0,-7l-2.16,0l0,-3.86z" class="cls-2"/>
  <path d="m124.43865,17.37l53.27,0.93l-53.27,0.92a0.93,0.93 0 0 1 0,-1.85z" class="cls-1"/>
  <path d="m198.86865,8.9a1.68,1.68 0 0 1 2,0c3.39,2.62 17.48,13.43 18,14c7.58,5.55 -18.29,6.34 -18.29,6.34s13.33,-3.43 10.71,-5.55s-9.66,-7.39 -11.23,-8.45c-2.35,-1.85 -10.45,4.49 -22.21,2.64c0.09,0.01 9.93,-0.73 21.02,-8.98z" class="cls-1"/>
  <ellipse ry="1.64" rx="1.63" cy="7.13" cx="203.59865" class="cls-1"/>
  <ellipse ry="1.64" rx="1.63" cy="9.69" cx="206.78865" class="cls-1"/>
  <ellipse ry="1.64" rx="1.63" cy="12.52" cx="210.04865" class="cls-1"/>
  <ellipse ry="1.64" rx="1.63" cy="15.09" cx="213.23865" class="cls-1"/>
  <ellipse ry="1.64" rx="1.63" cy="17.66" cx="216.36865" class="cls-1"/>
  <ellipse ry="1.64" rx="1.63" cy="20.42" cx="219.41865" class="cls-1"/>
  <path d="m0.82865,31.58a25.05,25.05 0 0 1 -0.78,-4.65a14.7,14.7 0 0 1 0,-2.39c0.07,-0.79 0.17,-1.56 0.3,-2.35a21,21 0 0 1 0.52,-2.32a18.26,18.26 0 0 1 0.79,-2.26a34.94,34.94 0 0 1 2,-4.3c0.19,-0.35 0.41,-0.7 0.63,-1s0.43,-0.66 0.66,-1c0.46,-0.65 0.94,-1.29 1.44,-1.91a30,30 0 0 1 3.29,-3.48c0.6,-0.53 1.22,-1 1.86,-1.54a17.35,17.35 0 0 1 2.14,-1.35a19.19,19.19 0 0 1 4.57,-1.84a34.45,34.45 0 0 1 4.74,-0.85a40.16,40.16 0 0 1 4.8,-0.34c0.81,0 1.62,0 2.44,0.08l0.61,0.05l0.59,0.06l1.2,0.14a36.07,36.07 0 0 1 4.76,0.94a49.28,49.28 0 0 1 8.9,3.64l4.18,2.09q2.12,1.03 4.18,2.15l4.1,2.2q2,1.07 4.08,2c0.69,0.3 1.38,0.58 2.08,0.84l0.52,0.19l0.49,0.18c0.29,0.09 0.58,0.16 0.87,0.22a6.94,6.94 0 0 0 1.76,0.09a8.67,8.67 0 0 0 0.89,-0.13a7.87,7.87 0 0 0 0.92,-0.24a33.38,33.38 0 0 0 4,-1.57l2.07,-1l0.53,-0.25l0.48,-0.24l1,-0.49c1.29,-0.68 2.58,-1.47 3.92,-2.26l0.52,-0.31l0.54,-0.3l1.07,-0.58l2.09,-1.07l1,-0.52l0.53,-0.28l0.56,-0.28c0.75,-0.37 1.51,-0.72 2.28,-1s1.55,-0.59 2.33,-0.84l1.18,-0.35l0.59,-0.13l0.63,-0.15a23.39,23.39 0 0 1 6.67,-0.82a24.51,24.51 0 0 1 7.2,1a13.48,13.48 0 0 1 2.4,1.11a16.14,16.14 0 0 1 3.92,3.25a28.55,28.55 0 0 1 2.86,3.94a28.61,28.61 0 0 1 2.2,4.26c0.31,0.74 0.58,1.48 0.83,2.23s0.47,1.51 0.65,2.27l-0.42,0.16a36.52,36.52 0 0 0 -4.94,-7.73a28.87,28.87 0 0 0 -3,-3.25a14.4,14.4 0 0 0 -3.55,-2.27a16,16 0 0 0 -6.53,-1.46a26.83,26.83 0 0 0 -7.25,1.14l-0.5,0.16l-0.52,0.18c-0.35,0.12 -0.69,0.25 -1,0.39c-0.69,0.26 -1.36,0.55 -2,0.86s-1.3,0.63 -1.93,1l-0.47,0.27l-0.48,0.29l-1,0.6l-2,1.13l-1,0.56l-0.47,0.28l-0.48,0.3c-1.31,0.82 -2.68,1.65 -4.14,2.43c-0.36,0.19 -0.73,0.39 -1.11,0.56l-0.57,0.27l-0.53,0.24l-2.18,1a34.35,34.35 0 0 1 -4.71,1.63c-0.39,0.1 -0.89,0.21 -1.35,0.28a9.75,9.75 0 0 1 -1.43,0.13a11.07,11.07 0 0 1 -2.87,-0.3a10.39,10.39 0 0 1 -1.37,-0.43l-0.6,-0.24l-0.56,-0.24c-0.74,-0.33 -1.48,-0.67 -2.2,-1c-1.45,-0.71 -2.85,-1.48 -4.22,-2.27l-4,-2.36q-2,-1.17 -4,-2.27l-4.09,-2.22a46.55,46.55 0 0 0 -8.22,-3.7a34.86,34.86 0 0 0 -4.35,-1l-1.32,-0.35l-0.56,-0.08l-0.55,-0.07c-0.73,-0.08 -1.48,-0.13 -2.22,-0.15a40.34,40.34 0 0 0 -4.52,0.13a34,34 0 0 0 -4.46,0.62a17.51,17.51 0 0 0 -4.14,1.44a21.34,21.34 0 0 0 -3.68,2.5a27.63,27.63 0 0 0 -3.26,3.14c-0.51,0.56 -1,1.15 -1.46,1.75c-0.23,0.3 -0.46,0.61 -0.68,0.92s-0.43,0.61 -0.63,0.93a34.57,34.57 0 0 0 -2.09,4.01a19,19 0 0 0 -0.85,2.11a19.75,19.75 0 0 0 -0.59,2.2c-0.17,0.74 -0.31,1.5 -0.42,2.26a14.19,14.19 0 0 0 -0.16,2.27a24.38,24.38 0 0 0 0.49,4.57l-0.44,0.14z" class="cls-1"/>
  <path d="m32.28865,32.03l5.08,1.61a11.35,11.35 0 0 1 -3.89,6.31a11,11 0 0 1 -6.89,2.08a11.14,11.14 0 0 1 -8.54,-3.55q-3.33,-3.53 -3.33,-9.66q0,-6.48 3.34,-10.07a11.48,11.48 0 0 1 8.8,-3.58a10.82,10.82 0 0 1 7.78,2.86a10.28,10.28 0 0 1 2.66,4.78l-5.19,1.22a5.37,5.37 0 0 0 -5.47,-4.35a5.92,5.92 0 0 0 -4.69,2.07q-1.78,2.07 -1.79,6.71q0,4.92 1.77,7a5.72,5.72 0 0 0 4.6,2.09a5.28,5.28 0 0 0 3.6,-1.32a7.78,7.78 0 0 0 2.16,-4.2z" class="cls-1"/>
  <polygon points="17.17865240573883,45.89999866485596 9.598653435707092,45.89999866485596 9.598653435707092,11.279999732971191 17.17865240573883,11.279999732971191 17.17865240573883,13.25999927520752 11.57865297794342,13.25999927520752 11.57865297794342,43.91999912261963 17.17865240573883,43.91999912261963 17.17865240573883,45.89999866485596 " class="cls-1"/>
  <polygon points="42.268654465675354,45.89999866485596 34.67865431308746,45.89999866485596 34.67865431308746,43.91999912261963 40.288654923439026,43.91999912261963 40.288654923439026,13.25999927520752 34.67865431308746,13.25999927520752 34.67865431308746,11.279999732971191 42.268654465675354,11.279999732971191 42.268654465675354,45.89999866485596 " class="cls-1"/>
</svg>